PathFileType	4	(X/Y/Z)	OpenSim_Sub10_EMGBaseline_Gyro.trc
DataRate	CameraRate	NumFrames	NumMarkers	Units	OrigDataRate	OrigDataStartFrame	OrigNumFrames
100	100	17	8	m	100	5126	8201
Frame#	Time	torso_imu_offset_imu	pelvis_imu_offset_imu	tibia_r_imu_offset_imu	femur_r_imu_offset_imu	tibia_l_imu_offset_imu	femur_l_imu_offset_imu	toes_r_imu_offset_imu	toes_l_imu_offset_imu
				X1	Y1	Z1	X2	Y2	Z2	X3	Y3	Z3	X4	Y4	Z4	X5	Y5	Z5	X6	Y6	Z6	X7	Y7	Z7	X8		Y8	Z8	

5126	51.25000000	0.44651200	0.11229900	-0.06604800	0.66106500	0.20871700	0.16273300	-1.70402700	0.02941900	-0.61890700	-0.50491700	0.07283700	-1.42216600	-0.74545800	-0.42750700	2.45324300	0.90098200	0.64419600	-2.21700300	-0.16953900	-0.07013700	0.23763800	0.39365100	-3.90787100	1.49021300
5127	51.26000000	0.41264200	0.06890200	-0.03568200	0.58695200	0.21750500	0.16370800	-1.50937000	0.03134700	-0.49728100	-0.46606300	0.11608500	-1.22478900	-0.65400600	-0.54665200	2.43452400	1.02359500	0.55235900	-2.22238800	-0.20678600	-0.07295700	0.21345800	-1.11929100	-3.16706300	1.47813000
5128	51.27000000	0.41888800	0.01892100	-0.00648800	0.50800000	0.22334600	0.14769500	-1.03369300	-0.03651700	-0.39537500	-0.37437100	0.09365200	-1.11749600	-0.38140900	-0.46613000	2.34631000	1.13445200	0.49146600	-2.13742500	-0.14669000	-0.05771700	0.17386000	0.16550700	-2.50197200	1.35716100
5129	51.28000000	0.46056900	-0.04107100	0.03805100	0.41986700	0.23031100	0.13260200	-0.38310900	-0.07127800	-0.41638300	-0.22886700	0.05405400	-1.05084200	-0.00953500	-0.19621300	2.18893600	1.19744000	0.48683600	-2.00747500	-0.07162300	-0.03264800	0.13406300	2.67308600	-0.70617400	1.97356900
5130	51.29000000	0.52301900	-0.12429700	0.08049400	0.33039600	0.22857600	0.10207700	0.22045900	-0.07380600	-0.51880400	-0.02508000	0.03310400	-0.99996700	0.39933800	-0.31978500	1.91139100	1.25788400	0.51850900	-1.86805100	-0.05388100	-0.03792500	0.12219900	1.89109500	0.38621400	2.07668900
5131	51.30000000	0.59354300	-0.20377900	0.11394300	0.27869600	0.22915000	0.05000600	0.69527500	-0.08172800	-0.55654800	0.21554900	0.02327900	-0.99013200	1.40735100	-0.84735600	1.49578800	1.32425900	0.58727000	-1.74885200	-0.09997000	-0.04323300	0.12714400	0.93258900	0.43498300	2.32036700
5132	51.31000000	0.56237700	-0.29017200	0.12477800	0.28236700	0.21915800	-0.02158900	1.07030000	-0.17565600	-0.50240300	0.42828300	0.01112000	-1.00343500	2.48083300	-1.17649500	0.97885100	1.31056500	0.66005600	-1.68321600	-0.06394700	-0.05964400	0.10864700	0.08098300	0.64934800	2.16936100
5133	51.32000000	0.45834900	-0.36959100	0.12109000	0.30272100	0.20154900	-0.10917100	1.24233700	-0.25360300	-0.42524100	0.56572800	-0.01059900	-1.02457300	3.04564900	-1.20646400	0.40861000	1.19896800	0.67846600	-1.64874400	0.00910400	-0.05783600	0.06387800	0.26736900	1.06537000	1.69661400
5134	51.33000000	0.42139400	-0.32243900	0.15996200	0.32266800	0.18858600	-0.19857900	1.10396200	-0.23434800	-0.36804100	0.61550800	-0.02332700	-1.03650000	3.29387700	-0.99304100	-0.15788400	1.00673600	0.65241000	-1.61197700	0.02440100	-0.06414800	0.01692600	0.64120000	1.54560200	1.07688700
5135	51.34000000	0.43286800	-0.24736500	0.20466400	0.34175500	0.17825700	-0.27676000	0.76587500	-0.18539400	-0.32351300	0.60055900	-0.03656000	-1.04136300	3.13939300	-0.76145500	-0.65109000	0.76808300	0.59056800	-1.54799500	0.11467200	-0.01922300	-0.03703300	0.60539600	1.99087200	0.54712500
5136	51.35000000	0.43703500	-0.24005700	0.24550300	0.35738300	0.17108600	-0.32742900	0.38431400	-0.12787800	-0.27761900	0.57427300	-0.06432000	-1.03959600	2.75926500	-0.61915900	-1.08824100	0.48523300	0.52505000	-1.47810000	0.12877200	-0.00815400	-0.05737200	0.34375500	2.32204500	0.14856000
5137	51.36000000	0.40234500	-0.25796200	0.25675100	0.35622500	0.16686600	-0.34094700	0.11043200	-0.07977900	-0.26443800	0.53089900	-0.09579100	-1.03210400	2.48306400	-0.53398700	-1.53665500	0.19791400	0.45977500	-1.41584100	0.11898600	0.00140300	-0.07129900	0.16184200	2.57121200	-0.14877200
5138	51.37000000	0.39051000	-0.27640500	0.24544700	0.34003700	0.17442900	-0.32164200	-0.11375300	-0.06859800	-0.30894200	0.46447900	-0.10720000	-1.02139400	2.16155200	-0.48497500	-1.95230200	-0.05345300	0.40765200	-1.34640900	0.09938800	0.02060800	-0.09135000	0.36238000	2.83423400	-0.37423400
5139	51.38000000	0.41026200	-0.28340600	0.21400700	0.30529000	0.17826400	-0.27582500	-0.32360300	-0.08579200	-0.38028000	0.36708200	-0.10880500	-1.01520900	1.69029300	-0.43716300	-2.26666000	-0.28371200	0.37113200	-1.29549800	0.10162300	0.03658400	-0.14013500	0.69785800	3.19817900	-0.51396300
5140	51.39000000	0.43305600	-0.25753700	0.17314100	0.27439000	0.16911400	-0.22144000	-0.40986500	-0.06881500	-0.40538600	0.24168900	-0.10015200	-1.01536900	1.17690400	-0.34376100	-2.52362100	-0.48402200	0.34110600	-1.26592700	0.10646500	0.07381300	-0.18946200	0.88464300	3.60312100	-0.52845300
5141	51.40000000	0.43221000	-0.23074900	0.18119700	0.24098100	0.14876100	-0.17540600	-0.32773400	-0.02423900	-0.39588700	0.12598300	-0.09224600	-0.99812700	0.62456300	-0.22077200	-2.82114700	-0.66162800	0.31656500	-1.23802100	0.16341500	0.10552200	-0.24339500	0.93235900	3.96855300	-0.45586900
5142	51.41000000	0.40682100	-0.25756400	0.16919100	0.20589300	0.14801900	-0.14704800	-0.17651500	-0.01057500	-0.38652600	0.01965300	-0.07702700	-0.94505300	-0.00154000	-0.16440000	-3.20503700	-0.78398900	0.28976300	-1.21406800	0.20586800	0.12959100	-0.25507300	0.99557500	4.21537200	-0.37331900
